<svg xmlns="http://www.w3.org/2000/svg" viewBox="0 0 1024 1024">
  <defs>
    <linearGradient id="bg" x1="168" y1="120" x2="856" y2="904" gradientUnits="userSpaceOnUse">
      <stop offset="0" stop-color="#0F2437"/>
      <stop offset="0.52" stop-color="#0A1322"/>
      <stop offset="1" stop-color="#101B2A"/>
    </linearGradient>
    <linearGradient id="panel" x1="218" y1="222" x2="806" y2="802" gradientUnits="userSpaceOnUse">
      <stop offset="0" stop-color="#17344C"/>
      <stop offset="1" stop-color="#0E1E30"/>
    </linearGradient>
    <linearGradient id="accent" x1="274" y1="296" x2="748" y2="728" gradientUnits="userSpaceOnUse">
      <stop offset="0" stop-color="#45E3D2"/>
      <stop offset="1" stop-color="#3A8CFF"/>
    </linearGradient>
    <filter id="softShadow" x="-20%" y="-20%" width="140%" height="140%">
      <feDropShadow dx="0" dy="28" stdDeviation="34" flood-color="#020617" flood-opacity="0.34"/>
    </filter>
  </defs>

  <rect x="64" y="64" width="896" height="896" rx="228" fill="url(#bg)"/>
  <rect x="98" y="98" width="828" height="828" rx="196" fill="none" stroke="#FFFFFF" stroke-opacity="0.08" stroke-width="18"/>

  <g filter="url(#softShadow)">
    <rect x="206" y="214" width="612" height="596" rx="86" fill="url(#panel)" stroke="#78F6EA" stroke-opacity="0.22" stroke-width="18"/>
    <rect x="256" y="272" width="218" height="480" rx="44" fill="#DFF8F5" fill-opacity="0.08" stroke="#9EF8EF" stroke-opacity="0.28" stroke-width="12"/>
    <rect x="550" y="272" width="218" height="480" rx="44" fill="#DCEBFF" fill-opacity="0.075" stroke="#7BB6FF" stroke-opacity="0.26" stroke-width="12"/>
    <rect x="500" y="294" width="24" height="436" rx="12" fill="#9EF8EF" fill-opacity="0.24"/>
  </g>

  <path d="M310 613 C386 528 454 701 526 610 C594 526 650 450 724 486" fill="none" stroke="url(#accent)" stroke-width="34" stroke-linecap="round"/>
  <circle cx="310" cy="613" r="34" fill="#45E3D2"/>
  <circle cx="526" cy="610" r="34" fill="#6DB2FF"/>
  <circle cx="724" cy="486" r="34" fill="#FFB86B"/>

  <path d="M322 380 H430" stroke="#E7FFFB" stroke-opacity="0.68" stroke-width="28" stroke-linecap="round"/>
  <path d="M322 456 H402" stroke="#E7FFFB" stroke-opacity="0.34" stroke-width="24" stroke-linecap="round"/>
  <path d="M594 380 H700" stroke="#EAF2FF" stroke-opacity="0.62" stroke-width="28" stroke-linecap="round"/>
  <path d="M622 682 H704" stroke="#EAF2FF" stroke-opacity="0.34" stroke-width="24" stroke-linecap="round"/>
</svg>
