<svg xmlns="http://www.w3.org/2000/svg" viewBox="0 0 24 24">
  <path fill="#999999" fill-opacity=".25" d="M5 4.5A2.5 2.5 0 0 1 7.5 2h5.1c.66 0 1.3.26 1.77.73l3.9 3.9c.47.47.73 1.1.73 1.77v11.1a2.5 2.5 0 0 1-2.5 2.5h-9A2.5 2.5 0 0 1 5 19.5z"/>
  <path fill="#999999" d="M12.6 3.2c.34 0 .67.14.91.38l3.91 3.91c.24.24.38.57.38.91v11.1c0 .72-.58 1.3-1.3 1.3h-9c-.72 0-1.3-.58-1.3-1.3v-15c0-.72.58-1.3 1.3-1.3zm0-1.2H7.5A2.5 2.5 0 0 0 5 4.5v15A2.5 2.5 0 0 0 7.5 22h9a2.5 2.5 0 0 0 2.5-2.5V8.4c0-.66-.26-1.3-.73-1.77l-3.9-3.9A2.5 2.5 0 0 0 12.6 2"/>
  <path fill="#999999" d="M13.2 2.5h1.2v4.1c0 .22.18.4.4.4h4.1v1.2h-4.1a1.6 1.6 0 0 1-1.6-1.6zM9 5h2v1.2H9zm2 1.2h2v1.2h-2zM9 7.4h2v1.2H9zm2 1.2h2v1.2h-2zM9 9.8h2V11H9zm2 1.2h2v1.2h-2z"/>
  <path fill="#999999" fill-opacity=".25" d="M9 13h4a2 2 0 0 1 2 2v2.5a2.5 2.5 0 0 1-5 0V16h2v1.5a.5.5 0 0 0 1 0V15a.8.8 0 0 0-.8-.8H9z"/>
  <path fill="#999999" d="M9 12.4h4a2.6 2.6 0 0 1 2.6 2.6v2.5a3.1 3.1 0 0 1-6.2 0v-2.1h3.2v2.1a.1.1 0 0 0 .2 0V15a.2.2 0 0 0-.2-.2H9zm1.2 1.2v.6h2.4A1.4 1.4 0 0 1 14 15v2.5a1.3 1.3 0 0 1-2.6 0v-.9h-.8v.9a1.9 1.9 0 0 0 3.8 0V15A1.4 1.4 0 0 0 13 13.6z"/>
</svg>
