<svg xmlns="http://www.w3.org/2000/svg" viewBox="0 0 24 24">
  <defs>
    <linearGradient id="bookTop" x1="4" y1="3" x2="20" y2="9" gradientUnits="userSpaceOnUse">
      <stop offset="0" stop-color="#8b5cf6"/>
      <stop offset="1" stop-color="#6d28d9"/>
    </linearGradient>
    <linearGradient id="bookMid" x1="3" y1="8" x2="21" y2="14" gradientUnits="userSpaceOnUse">
      <stop offset="0" stop-color="#ef4444"/>
      <stop offset="1" stop-color="#b91c1c"/>
    </linearGradient>
    <linearGradient id="bookBottom" x1="4" y1="13" x2="20" y2="21" gradientUnits="userSpaceOnUse">
      <stop offset="0" stop-color="#22c55e"/>
      <stop offset="1" stop-color="#15803d"/>
    </linearGradient>
    <linearGradient id="strap" x1="10.25" y1="3.5" x2="14.25" y2="21" gradientUnits="userSpaceOnUse">
      <stop offset="0" stop-color="#fde68a"/>
      <stop offset=".48" stop-color="#f59e0b"/>
      <stop offset="1" stop-color="#b45309"/>
    </linearGradient>
  </defs>

  <path fill="#0f172a" fill-opacity=".18" d="M5.15 20.15h13.7c.74 0 1.35-.6 1.35-1.35v-.45H3.8v.45c0 .74.6 1.35 1.35 1.35z"/>

  <rect x="4.25" y="3.35" width="15.5" height="5.2" rx="1.25" fill="url(#bookTop)"/>
  <path fill="#c4b5fd" fill-opacity=".55" d="M5.65 4.45h12.7c.23 0 .42.19.42.42v.45H5.23v-.45c0-.23.19-.42.42-.42z"/>
  <path fill="#4c1d95" fill-opacity=".32" d="M4.25 7.05h15.5v.95c0 .3-.24.55-.55.55H4.8a.55.55 0 0 1-.55-.55z"/>

  <rect x="3.35" y="8.05" width="17.3" height="5.3" rx="1.3" fill="url(#bookMid)"/>
  <path fill="#fecaca" fill-opacity=".5" d="M4.7 9.15h14.6c.24 0 .44.2.44.44v.44H4.26v-.44c0-.24.2-.44.44-.44z"/>
  <path fill="#7f1d1d" fill-opacity=".32" d="M3.35 11.85h17.3v.9c0 .36-.29.65-.65.65H4c-.36 0-.65-.29-.65-.65z"/>

  <rect x="4.15" y="12.95" width="15.7" height="6.1" rx="1.35" fill="url(#bookBottom)"/>
  <path fill="#bbf7d0" fill-opacity=".48" d="M5.55 14.1h12.9c.25 0 .45.2.45.45v.5H5.1v-.5c0-.25.2-.45.45-.45z"/>
  <path fill="#14532d" fill-opacity=".32" d="M4.15 17.55h15.7v.7c0 .58-.47 1.05-1.05 1.05H5.2c-.58 0-1.05-.47-1.05-1.05z"/>

  <rect x="10.05" y="2.9" width="3.9" height="18.2" rx=".8" fill="url(#strap)"/>
  <path fill="#fff7cc" fill-opacity=".55" d="M10.95 3.55h.85v17.1h-.85z"/>
  <path fill="#92400e" fill-opacity=".32" d="M13.1 3.55h.6v17.1h-.6z"/>

  <rect x="8.75" y="10.35" width="6.5" height="4.15" rx=".9" fill="#fef3c7"/>
  <rect x="9.65" y="11.15" width="4.7" height="2.55" rx=".55" fill="#d97706"/>
  <path fill="#fef3c7" d="M10.55 12.1h2.9v.65h-2.9z"/>

  <path fill="none" stroke="#0f172a" stroke-opacity=".20" stroke-width=".7" d="M4.8 3.35h14.4c.41 0 .75.34.75.75v3.75c0 .41-.34.75-.75.75H4.8a.75.75 0 0 1-.75-.75V4.1c0-.41.34-.75.75-.75zm-.55 4.7h15.5c.55 0 1 .45 1 1v3.3c0 .55-.45 1-1 1H4.25c-.55 0-1-.45-1-1v-3.3c0-.55.45-1 1-1zm.9 4.9h13.7c.58 0 1.05.47 1.05 1.05v4.1c0 .58-.47 1.05-1.05 1.05H5.15c-.58 0-1.05-.47-1.05-1.05V14c0-.58.47-1.05 1.05-1.05z"/>
</svg>
