<svg xmlns="http://www.w3.org/2000/svg" viewBox="0 0 24 24">  <defs>    <mask id="m1_columns-2">      <g fill="none" stroke-width="1.2">        <path stroke="#fff" stroke-linecap="round" stroke-opacity=".25" d="M16.5 12h4m-4-2.5l4-1.5m-4 6.5l4 1.5"/>      </g>    </mask>    <mask id="m2_columns-2">      <g fill="none" stroke-width="1.2">        <path stroke="#fff" d="M12.42 7.602a9.5 9.5 0 0 1-.135 9.047"/>        <path stroke="#fff" stroke-linecap="round" d="M14.5 5.5c-2.781 3.708-9.86 6.127-10.877 6.46a.049.049 0 0 0-.005.092c1.001.446 8.097 3.663 10.882 6.448"/>        <path stroke="#fff" d="M13.233 14.49a2.5 2.5 0 1 1-.093-4.986"/>      </g>    </mask>  </defs>  <path fill="#3b82f6" fill-opacity=".3" d="M0 0h24v24H0z" mask="url(#m1_columns-2)"/>  <path fill="#999999" d="M0 0h24v24H0z" mask="url(#m2_columns-2)"/></svg>