<svg xmlns="http://www.w3.org/2000/svg" viewBox="0 0 24 24">
  <path fill="#f8fbff" d="M6 2.9h7.25c.48 0 .94.19 1.28.53l3.74 3.74c.34.34.53.8.53 1.28V18a3.1 3.1 0 0 1-3.1 3.1H8.3A3.1 3.1 0 0 1 5.2 18V3.7c0-.44.36-.8.8-.8z"/>
  <path fill="#d9e8fb" d="M13.1 3.18V7.1c0 .9.73 1.63 1.63 1.63h3.92z"/>
  <path fill="#d97706" d="M9.15 9.2h5.7c.64 0 1.15.51 1.15 1.15v6.8c0 .64-.51 1.15-1.15 1.15h-5.7c-.64 0-1.15-.51-1.15-1.15v-6.8c0-.64.51-1.15 1.15-1.15z"/>
  <path fill="#fbbf24" d="M9.25 10.15h5.5v6.95h-5.5z"/>
  <path fill="#7c3f06" d="M11.35 9.2h1.3v1.3h-1.3zm1.3 1.3h1.3v1.3h-1.3zm-1.3 1.3h1.3v1.3h-1.3zm1.3 1.3h1.3v1.3h-1.3zm-1.3 1.3h1.3v1.3h-1.3z" opacity=".9"/>
  <rect x="10.45" y="15.45" width="3.1" height="1.35" rx=".45" fill="#fff1c2"/>
  <path fill="none" stroke="#7892b7" stroke-opacity=".42" stroke-width=".75" d="M6 3.28h7.25c.38 0 .74.15 1.02.42l3.73 3.74c.27.27.42.63.42 1.01V18c0 1.5-1.22 2.72-2.72 2.72H8.3A2.72 2.72 0 0 1 5.58 18V3.7c0-.23.19-.42.42-.42z"/>
</svg>
