<svg xmlns="http://www.w3.org/2000/svg" viewBox="0 0 24 24">
  <defs>
    <linearGradient id="docPage" x1="5.1" y1="2.7" x2="18.9" y2="21.2" gradientUnits="userSpaceOnUse">
      <stop offset="0" stop-color="#ffffff"/>
      <stop offset="1" stop-color="#edf4ff"/>
    </linearGradient>
    <linearGradient id="docAccent" x1="6.7" y1="12.7" x2="17.3" y2="18.6" gradientUnits="userSpaceOnUse">
      <stop offset="0" stop-color="#4f8df7"/>
      <stop offset="1" stop-color="#1f5ed8"/>
    </linearGradient>
  </defs>
  <path fill="#0f172a" fill-opacity=".13" d="M8.25 21.5h7.5c1.95 0 3.45-1.49 3.45-3.45V8.35c0-.6-.24-1.17-.66-1.6l-3.62-3.62a2.28 2.28 0 0 0-1.6-.66H6.05c-.65 0-1.18.53-1.18 1.18v14.4c0 1.96 1.5 3.45 3.38 3.45z"/>
  <path fill="url(#docPage)" d="M6.05 2.75h7.2c.5 0 .97.2 1.32.55l3.63 3.63c.35.35.55.82.55 1.32v9.55a3.05 3.05 0 0 1-3.05 3.05H8.3a3.05 3.05 0 0 1-3.05-3.05V3.55c0-.44.36-.8.8-.8z"/>
  <path fill="#dbeafe" d="M13.05 3.05v3.98c0 .9.73 1.63 1.63 1.63h3.78z"/>
  <path fill="#ffffff" fill-opacity=".75" d="M14.15 4.02 17.5 7.37h-2.72a.63.63 0 0 1-.63-.63z"/>
  <path fill="#c9d9ef" d="M7.45 9.9h7.55v1.05H7.45zm0 2.05h8.75V13H7.45zm0 2.05h5.85v1.05H7.45z"/>
  <path fill="url(#docAccent)" d="M6.85 15.35h10.3v2.28c0 .5-.4.9-.9.9h-8.5c-.5 0-.9-.4-.9-.9z"/>
  <path fill="#ffffff" fill-opacity=".88" d="M8.05 16.25h7.9v.85h-7.9z"/>
  <path fill="none" stroke="#6f86a8" stroke-opacity=".38" stroke-width=".72" d="M6.05 3.11h7.2c.4 0 .78.16 1.06.44l3.63 3.63c.28.28.44.66.44 1.06v9.56a2.69 2.69 0 0 1-2.69 2.69H8.3a2.69 2.69 0 0 1-2.69-2.69V3.55c0-.24.2-.44.44-.44z"/>
</svg>
