<svg xmlns="http://www.w3.org/2000/svg" viewBox="0 0 24 24">
  <defs>
    <linearGradient id="fbPage" x1="5.1" y1="2.7" x2="18.9" y2="21.2" gradientUnits="userSpaceOnUse">
      <stop offset="0" stop-color="#ffffff"/>
      <stop offset="1" stop-color="#f0fdfa"/>
    </linearGradient>
    <linearGradient id="fbBook" x1="6.75" y1="10.6" x2="17.25" y2="18.6" gradientUnits="userSpaceOnUse">
      <stop offset="0" stop-color="#14b8a6"/>
      <stop offset="1" stop-color="#0f766e"/>
    </linearGradient>
  </defs>
  <path fill="#0f172a" fill-opacity=".13" d="M8.25 21.5h7.5c1.95 0 3.45-1.49 3.45-3.45V8.35c0-.6-.24-1.17-.66-1.6l-3.62-3.62a2.28 2.28 0 0 0-1.6-.66H6.05c-.65 0-1.18.53-1.18 1.18v14.4c0 1.96 1.5 3.45 3.38 3.45z"/>
  <path fill="url(#fbPage)" d="M6.05 2.75h7.2c.5 0 .97.2 1.32.55l3.63 3.63c.35.35.55.82.55 1.32v9.55a3.05 3.05 0 0 1-3.05 3.05H8.3a3.05 3.05 0 0 1-3.05-3.05V3.55c0-.44.36-.8.8-.8z"/>
  <path fill="#99f6e4" d="M13.05 3.05v3.98c0 .9.73 1.63 1.63 1.63h3.78z"/>
  <path fill="#f59e0b" d="M9.35 5.7h3.25v5.15l-1.62-.94-1.63.94z"/>
  <path fill="#0f766e" d="M8.2 10.2 6.6 8.6 8.2 7l.75.75-.85.85.85.85zm7.6 0-.75-.75.85-.85-.85-.85.75-.75 1.6 1.6z"/>
  <rect x="6.75" y="12.55" width="10.5" height="5.92" rx="1.25" fill="url(#fbBook)"/>
  <path fill="#ccfbf1" d="M8 13.38h3.15c.78 0 1.39.2 1.85.6.46-.4 1.07-.6 1.85-.6H16v3.98h-1.28c-.58 0-1.02.12-1.34.36l-.38.28-.38-.28c-.32-.24-.76-.36-1.34-.36H8z"/>
  <path fill="#0f766e" fill-opacity=".45" d="M12.55 13.95h.9v3.2h-.9z"/>
  <path fill="none" stroke="#6f86a8" stroke-opacity=".38" stroke-width=".72" d="M6.05 3.11h7.2c.4 0 .78.16 1.06.44l3.63 3.63c.28.28.44.66.44 1.06v9.56a2.69 2.69 0 0 1-2.69 2.69H8.3a2.69 2.69 0 0 1-2.69-2.69V3.55c0-.24.2-.44.44-.44z"/>
</svg>
