<svg xmlns="http://www.w3.org/2000/svg" viewBox="0 0 24 24">
  <path fill="#e2a62f" d="M2.8 7.1c0-1.05.85-1.9 1.9-1.9h4.45c.5 0 .98.2 1.34.55l1.18 1.15c.36.35.84.55 1.34.55h6.29c1.05 0 1.9.85 1.9 1.9v.95H2.8z"/>
  <path fill="#f6c64b" d="M2.8 9.15h18.4v7.35c0 1.43-1.17 2.6-2.6 2.6H5.4a2.6 2.6 0 0 1-2.6-2.6z"/>
  <path fill="#ffe08a" d="M4.4 10.35h15.2v5.9c0 .86-.69 1.55-1.55 1.55H5.95c-.86 0-1.55-.69-1.55-1.55z" opacity=".55"/>
  <path fill="none" stroke="#8a5a10" stroke-opacity=".24" stroke-width=".75" d="M3.18 9.15h17.64v7.35c0 1.22-1 2.22-2.22 2.22H5.4a2.22 2.22 0 0 1-2.22-2.22z"/>
</svg>
