<svg xmlns="http://www.w3.org/2000/svg" viewBox="0 0 24 24">
  <defs>
    <linearGradient id="fontPage" x1="5.1" y1="2.7" x2="18.9" y2="21.2" gradientUnits="userSpaceOnUse">
      <stop offset="0" stop-color="#ffffff"/>
      <stop offset="1" stop-color="#eef2ff"/>
    </linearGradient>
    <linearGradient id="fontInk" x1="7.7" y1="8.9" x2="16.3" y2="18.9" gradientUnits="userSpaceOnUse">
      <stop offset="0" stop-color="#6366f1"/>
      <stop offset="1" stop-color="#312e81"/>
    </linearGradient>
  </defs>
  <path fill="#0f172a" fill-opacity=".13" d="M8.25 21.5h7.5c1.95 0 3.45-1.49 3.45-3.45V8.35c0-.6-.24-1.17-.66-1.6l-3.62-3.62a2.28 2.28 0 0 0-1.6-.66H6.05c-.65 0-1.18.53-1.18 1.18v14.4c0 1.96 1.5 3.45 3.38 3.45z"/>
  <path fill="url(#fontPage)" d="M6.05 2.75h7.2c.5 0 .97.2 1.32.55l3.63 3.63c.35.35.55.82.55 1.32v9.55a3.05 3.05 0 0 1-3.05 3.05H8.3a3.05 3.05 0 0 1-3.05-3.05V3.55c0-.44.36-.8.8-.8z"/>
  <path fill="#c7d2fe" d="M13.05 3.05v3.98c0 .9.73 1.63 1.63 1.63h3.78z"/>
  <path fill="url(#fontInk)" d="M7.9 18.25h1.55l.58-1.72h3.88l.58 1.72h1.61l-3.2-8.5h-1.8zm2.54-2.95 1.52-4.46 1.54 4.46z"/>
  <path fill="#818cf8" d="M7.95 18.9h8.1v.85h-8.1z"/>
  <path fill="#c7d2fe" fill-opacity=".78" d="M9.95 6.3h4.1v1.05h-1.4v1.45h-1.3V7.35h-1.4z"/>
  <path fill="none" stroke="#6f86a8" stroke-opacity=".38" stroke-width=".72" d="M6.05 3.11h7.2c.4 0 .78.16 1.06.44l3.63 3.63c.28.28.44.66.44 1.06v9.56a2.69 2.69 0 0 1-2.69 2.69H8.3a2.69 2.69 0 0 1-2.69-2.69V3.55c0-.24.2-.44.44-.44z"/>
</svg>
