<svg xmlns="http://www.w3.org/2000/svg" viewBox="0 0 24 24">
  <path fill="#f8fbff" d="M6 2.9h7.25c.48 0 .94.19 1.28.53l3.74 3.74c.34.34.53.8.53 1.28V18a3.1 3.1 0 0 1-3.1 3.1H8.3A3.1 3.1 0 0 1 5.2 18V3.7c0-.44.36-.8.8-.8z"/>
  <path fill="#d9e8fb" d="M13.1 3.18V7.1c0 .9.73 1.63 1.63 1.63h3.92z"/>
  <rect x="6.95" y="10.1" width="10.1" height="7.8" rx="1.25" fill="#16a39a"/>
  <path fill="#b7f3ec" d="m7.8 16.15 2.38-2.62c.37-.4.99-.38 1.33.04l1.42 1.73.75-.78c.36-.38.97-.38 1.34-.01l1.18 1.21v.8c0 .34-.27.6-.6.6H8.4a.6.6 0 0 1-.6-.6z"/>
  <circle cx="14.45" cy="12.4" r="1.05" fill="#facc15"/>
  <path fill="none" stroke="#7892b7" stroke-opacity=".42" stroke-width=".75" d="M6 3.28h7.25c.38 0 .74.15 1.02.42l3.73 3.74c.27.27.42.63.42 1.01V18c0 1.5-1.22 2.72-2.72 2.72H8.3A2.72 2.72 0 0 1 5.58 18V3.7c0-.23.19-.42.42-.42z"/>
</svg>
