<svg xmlns="http://www.w3.org/2000/svg" viewBox="0 0 24 24">
  <defs>
    <linearGradient id="pdfPage" x1="5.1" y1="2.7" x2="18.9" y2="21.2" gradientUnits="userSpaceOnUse">
      <stop offset="0" stop-color="#ffffff"/>
      <stop offset="1" stop-color="#fff1f2"/>
    </linearGradient>
    <linearGradient id="pdfTile" x1="6.75" y1="12.5" x2="17.25" y2="18.9" gradientUnits="userSpaceOnUse">
      <stop offset="0" stop-color="#ef4444"/>
      <stop offset="1" stop-color="#b91c1c"/>
    </linearGradient>
  </defs>
  <path fill="#0f172a" fill-opacity=".13" d="M8.25 21.5h7.5c1.95 0 3.45-1.49 3.45-3.45V8.35c0-.6-.24-1.17-.66-1.6l-3.62-3.62a2.28 2.28 0 0 0-1.6-.66H6.05c-.65 0-1.18.53-1.18 1.18v14.4c0 1.96 1.5 3.45 3.38 3.45z"/>
  <path fill="url(#pdfPage)" d="M6.05 2.75h7.2c.5 0 .97.2 1.32.55l3.63 3.63c.35.35.55.82.55 1.32v9.55a3.05 3.05 0 0 1-3.05 3.05H8.3a3.05 3.05 0 0 1-3.05-3.05V3.55c0-.44.36-.8.8-.8z"/>
  <path fill="#fecaca" d="M13.05 3.05v3.98c0 .9.73 1.63 1.63 1.63h3.78z"/>
  <path fill="#ef4444" fill-opacity=".18" d="M8.35 11.05c1.25-.6 2.14-2.2 2.52-4.45.1-.62 1.03-.62 1.14 0 .42 2.33 1.52 3.77 3.24 4.23.57.15.62.94.08 1.18-2.05.92-4.28 1.65-6.68 2.2-.61.14-.96-.66-.44-1 .76-.5 1.42-1.24 1.96-2.19z"/>
  <path fill="url(#pdfTile)" d="M6.75 13.25h10.5v4.38c0 .5-.4.9-.9.9h-8.7c-.5 0-.9-.4-.9-.9z"/>
  <path fill="#ffffff" d="M7.96 14.36h1.63c.8 0 1.26.45 1.26 1.1 0 .69-.52 1.12-1.29 1.12h-.52v.74H7.96zm1.08.72v.78h.41c.24 0 .38-.14.38-.39 0-.24-.14-.39-.38-.39zm2.2-.72h1.25c.99 0 1.61.55 1.61 1.48 0 .94-.62 1.48-1.61 1.48h-1.25zm1 .78v1.4h.22c.4 0 .62-.23.62-.7s-.22-.7-.62-.7zm2.27-.78h1.93v.78h-.91v.4h.79v.75h-.79v1.03h-1.02z"/>
  <path fill="none" stroke="#6f86a8" stroke-opacity=".38" stroke-width=".72" d="M6.05 3.11h7.2c.4 0 .78.16 1.06.44l3.63 3.63c.28.28.44.66.44 1.06v9.56a2.69 2.69 0 0 1-2.69 2.69H8.3a2.69 2.69 0 0 1-2.69-2.69V3.55c0-.24.2-.44.44-.44z"/>
</svg>
