<svg xmlns="http://www.w3.org/2000/svg" viewBox="0 0 24 24">
  <path fill="#f8fbff" d="M6 2.9h7.25c.48 0 .94.19 1.28.53l3.74 3.74c.34.34.53.8.53 1.28V18a3.1 3.1 0 0 1-3.1 3.1H8.3A3.1 3.1 0 0 1 5.2 18V3.7c0-.44.36-.8.8-.8z"/>
  <path fill="#d9e8fb" d="M13.1 3.18V7.1c0 .9.73 1.63 1.63 1.63h3.92z"/>
  <path fill="#dc2626" d="M6.75 13.7h10.5v3.75c0 .42-.33.75-.75.75h-9c-.42 0-.75-.33-.75-.75z"/>
  <path fill="#fff" d="M8.15 14.7h1.7c.84 0 1.32.47 1.32 1.15 0 .72-.54 1.17-1.35 1.17h-.55v.78H8.15zm1.12.75v.82h.43c.25 0 .4-.15.4-.41 0-.25-.15-.41-.4-.41zm2.32-.75h1.32c1.03 0 1.68.57 1.68 1.55 0 .98-.65 1.55-1.68 1.55h-1.32zm1.05.82v1.46h.23c.42 0 .65-.24.65-.73s-.23-.73-.65-.73zm2.34-.82h2.02v.82h-.95v.42h.82v.78h-.82v1.08h-1.07z"/>
  <path fill="none" stroke="#7892b7" stroke-opacity=".42" stroke-width=".75" d="M6 3.28h7.25c.38 0 .74.15 1.02.42l3.73 3.74c.27.27.42.63.42 1.01V18c0 1.5-1.22 2.72-2.72 2.72H8.3A2.72 2.72 0 0 1 5.58 18V3.7c0-.23.19-.42.42-.42z"/>
</svg>
