<svg xmlns="http://www.w3.org/2000/svg" viewBox="0 0 24 24">
  <path fill="#f8fbff" d="M6 2.9h7.25c.48 0 .94.19 1.28.53l3.74 3.74c.34.34.53.8.53 1.28V18a3.1 3.1 0 0 1-3.1 3.1H8.3A3.1 3.1 0 0 1 5.2 18V3.7c0-.44.36-.8.8-.8z"/>
  <path fill="#d9e8fb" d="M13.1 3.18V7.1c0 .9.73 1.63 1.63 1.63h3.92z"/>
  <rect x="7.1" y="10.15" width="9.8" height="7.35" rx="1.15" fill="#e85d22"/>
  <path fill="#fff2df" d="M8.4 11.35h7.2v4.55H8.4z"/>
  <path fill="#f59e0b" d="M9.45 12.25h2.25v2.75H9.45z"/>
  <path fill="#e85d22" d="M12.45 12.4h2.2v.65h-2.2zm0 1.2h2.2v.65h-2.2z"/>
  <path fill="none" stroke="#7892b7" stroke-opacity=".42" stroke-width=".75" d="M6 3.28h7.25c.38 0 .74.15 1.02.42l3.73 3.74c.27.27.42.63.42 1.01V18c0 1.5-1.22 2.72-2.72 2.72H8.3A2.72 2.72 0 0 1 5.58 18V3.7c0-.23.19-.42.42-.42z"/>
</svg>
