<svg xmlns="http://www.w3.org/2000/svg" viewBox="0 0 24 24">
  <defs>
    <linearGradient id="textPage" x1="5.1" y1="2.7" x2="18.9" y2="21.2" gradientUnits="userSpaceOnUse">
      <stop offset="0" stop-color="#ffffff"/>
      <stop offset="1" stop-color="#edf5ff"/>
    </linearGradient>
    <linearGradient id="textAccent" x1="6.8" y1="12.3" x2="17.1" y2="18.8" gradientUnits="userSpaceOnUse">
      <stop offset="0" stop-color="#38bdf8"/>
      <stop offset="1" stop-color="#2563eb"/>
    </linearGradient>
  </defs>
  <path fill="#0f172a" fill-opacity=".13" d="M8.25 21.5h7.5c1.95 0 3.45-1.49 3.45-3.45V8.35c0-.6-.24-1.17-.66-1.6l-3.62-3.62a2.28 2.28 0 0 0-1.6-.66H6.05c-.65 0-1.18.53-1.18 1.18v14.4c0 1.96 1.5 3.45 3.38 3.45z"/>
  <path fill="url(#textPage)" d="M6.05 2.75h7.2c.5 0 .97.2 1.32.55l3.63 3.63c.35.35.55.82.55 1.32v9.55a3.05 3.05 0 0 1-3.05 3.05H8.3a3.05 3.05 0 0 1-3.05-3.05V3.55c0-.44.36-.8.8-.8z"/>
  <path fill="#dbeafe" d="M13.05 3.05v3.98c0 .9.73 1.63 1.63 1.63h3.78z"/>
  <path fill="#ffffff" fill-opacity=".76" d="M14.15 4.02 17.5 7.37h-2.72a.63.63 0 0 1-.63-.63z"/>
  <path fill="#c8d9ee" d="M7.25 9.75h9.1v1.05h-9.1zm0 2.15h8.1v1.05h-8.1zm0 2.15h5.9v1.05h-5.9z"/>
  <path fill="url(#textAccent)" d="M6.85 15.45h10.3v2.28c0 .5-.4.9-.9.9h-8.5c-.5 0-.9-.4-.9-.9z"/>
  <path fill="#ffffff" d="M8.1 16.32h7.8v.78h-3.05v1.03h-1.7V17.1H8.1z"/>
  <path fill="none" stroke="#6f86a8" stroke-opacity=".38" stroke-width=".72" d="M6.05 3.11h7.2c.4 0 .78.16 1.06.44l3.63 3.63c.28.28.44.66.44 1.06v9.56a2.69 2.69 0 0 1-2.69 2.69H8.3a2.69 2.69 0 0 1-2.69-2.69V3.55c0-.24.2-.44.44-.44z"/>
</svg>
