<svg xmlns="http://www.w3.org/2000/svg" viewBox="0 0 24 24">
  <path fill="#f8fbff" d="M6 2.9h7.25c.48 0 .94.19 1.28.53l3.74 3.74c.34.34.53.8.53 1.28V18a3.1 3.1 0 0 1-3.1 3.1H8.3A3.1 3.1 0 0 1 5.2 18V3.7c0-.44.36-.8.8-.8z"/>
  <path fill="#d9e8fb" d="M13.1 3.18V7.1c0 .9.73 1.63 1.63 1.63h3.92z"/>
  <rect x="7.1" y="10.25" width="9.8" height="7.25" rx="1.25" fill="#ef6c21"/>
  <path fill="#fff1df" d="m10.6 12.05 4.1 1.83-4.1 1.87z"/>
  <path fill="#f8b27a" d="M7.95 11.05h8.1v1.1h-8.1zm0 5.15h8.1v.45c0 .22-.18.4-.4.4h-7.3a.4.4 0 0 1-.4-.4z" opacity=".55"/>
  <path fill="none" stroke="#7892b7" stroke-opacity=".42" stroke-width=".75" d="M6 3.28h7.25c.38 0 .74.15 1.02.42l3.73 3.74c.27.27.42.63.42 1.01V18c0 1.5-1.22 2.72-2.72 2.72H8.3A2.72 2.72 0 0 1 5.58 18V3.7c0-.23.19-.42.42-.42z"/>
</svg>
