<svg xmlns="http://www.w3.org/2000/svg" viewBox="0 0 256 256" width="100%" height="100%">
  <defs>
    <filter id="blur-bg" x="-20%" y="-20%" width="140%" height="140%">
      <feGaussianBlur stdDeviation="8" />
    </filter>
    <filter id="shadow-front" x="-10%" y="-10%" width="120%" height="130%">
      <feDropShadow dx="0" dy="-2" stdDeviation="4" flood-color="#5c3a00" flood-opacity="0.08" />
      <feDropShadow dx="0" dy="5" stdDeviation="6" flood-color="#3e2723" flood-opacity="0.22" />
    </filter>
    <radialGradient id="dropShadowGrad" cx="50%" cy="50%" r="50%">
      <stop offset="0%" stop-color="#000000" stop-opacity="0.3" />
      <stop offset="80%" stop-color="#000000" stop-opacity="0.05" />
      <stop offset="100%" stop-color="#000000" stop-opacity="0" />
    </radialGradient>
    <linearGradient id="backGradient" x1="0" y1="0" x2="0" y2="1">
      <stop offset="0%" stop-color="#ffe082" />
      <stop offset="100%" stop-color="#e65100" />
    </linearGradient>
    <linearGradient id="frontGradient" x1="0" y1="0" x2="0" y2="1">
      <stop offset="0%" stop-color="#ffe082" />
      <stop offset="40%" stop-color="#ffa000" />
      <stop offset="100%" stop-color="#ff6f00" />
    </linearGradient>
    <linearGradient id="frontBorder" x1="0" y1="0" x2="0" y2="1">
      <stop offset="0%" stop-color="#ffffff" stop-opacity="0.7" />
      <stop offset="30%" stop-color="#ffffff" stop-opacity="0.2" />
      <stop offset="100%" stop-color="#ffab00" stop-opacity="0.1" />
    </linearGradient>
    <linearGradient id="metalGrad" x1="0" y1="0" x2="1" y2="1">
      <stop offset="0%" stop-color="#ffffff" />
      <stop offset="50%" stop-color="#b0bec5" />
      <stop offset="100%" stop-color="#546e7a" />
    </linearGradient>
  </defs>

  <ellipse cx="128" cy="222" rx="106" ry="12" fill="url(#dropShadowGrad)" filter="url(#blur-bg)" />

  <!-- Back Flap -->
  <path d="M 24 82 
           A 12 12 0 0 1 36 70 
           L 90 70 
           A 12 12 0 0 1 102 78 
           L 112 88 
           A 12 12 0 0 0 120 92 
           L 220 92 
           A 12 12 0 0 1 232 104 
           L 232 208 
           A 12 12 0 0 1 220 220 
           L 36 220 
           A 12 12 0 0 1 24 208 
           Z" 
        fill="url(#backGradient)" />

  <!-- Front Flap (with drop shadow & glassy edge highlight) -->
  <path d="M 24 124 
           A 12 12 0 0 1 36 112 
           L 220 112 
           A 12 12 0 0 1 232 124 
           L 232 208 
           A 12 12 0 0 1 220 220 
           L 36 220 
           A 12 12 0 0 1 24 208 
           Z" 
        fill="url(#frontGradient)" 
        stroke="url(#frontBorder)" 
        stroke-width="1.5"
        filter="url(#shadow-front)" />

  <!-- Zipper elements overlaying the front flap -->
  <g>
    <!-- Zipper base strip -->
    <rect x="120" y="112" width="16" height="108" fill="#455a64" />
    
    <!-- Zipper teeth left side -->
    <line x1="123" y1="114" x2="123" y2="218" stroke="#cfd8dc" stroke-width="2.5" stroke-dasharray="3,3" />
    <!-- Zipper teeth right side (offset to interlock) -->
    <line x1="133" y1="115.5" x2="133" y2="219.5" stroke="#cfd8dc" stroke-width="2.5" stroke-dasharray="3,3" />
    
    <!-- Metal slider track highlight -->
    <line x1="128" y1="112" x2="128" y2="220" stroke="#90a4ae" stroke-width="1" />

    <!-- Zipper slider body -->
    <rect x="117" y="132" width="22" height="28" rx="4" fill="url(#metalGrad)" stroke="#37474f" stroke-width="1.2" />
    <circle cx="128" cy="140" r="3" fill="#37474f" />
    
    <!-- Zipper pull-tab -->
    <rect x="122" y="146" width="12" height="30" rx="3" fill="url(#metalGrad)" stroke="#37474f" stroke-width="1.2" />
    <!-- Hole in pull tab -->
    <rect x="125" y="166" width="6" height="6" rx="1" fill="#455a64" />
  </g>
</svg>
