<svg xmlns="http://www.w3.org/2000/svg" viewBox="0 0 256 256">
  <defs>
    <linearGradient id="paper" x1="0" y1="0" x2="1" y2="1"><stop offset="0" stop-color="#fffdf0"/><stop offset="1" stop-color="#f1e6bd"/></linearGradient>
    <linearGradient id="cover" x1="0" y1="0" x2="1" y2="1"><stop offset="0" stop-color="#5b8def"/><stop offset="1" stop-color="#234b9b"/></linearGradient>
  </defs>
  <path d="M54 30h112l36 36v142a12 12 0 0 1-12 12H66a12 12 0 0 1-12-12z" fill="url(#paper)" stroke="#d0c79d" stroke-width="2"/>
  <path d="M166 30v24a12 12 0 0 0 12 12h24z" fill="#e1d6aa"/>
  <path d="M70 96q25-8 50 7v67q-26-14-50-5zm116 0q-25-8-50 7v67q26-14 50-5z" fill="url(#cover)"/>
  <path d="M128 105v72" stroke="#f6f9ff" stroke-width="4"/>
  <path d="M80 119h29m-29 13h29m38-13h29m-29 13h29" stroke="#dce9ff" stroke-width="3" stroke-linecap="round"/>
  <rect x="75" y="184" width="106" height="19" rx="4" fill="#d2d9e8"/>
  <text x="128" y="198" text-anchor="middle" font-family="Segoe UI, Arial, sans-serif" font-size="11" font-weight="bold" letter-spacing="1" fill="#263a64">EPUB</text>
</svg>
