<svg xmlns="http://www.w3.org/2000/svg" viewBox="0 0 256 256" width="100%" height="100%">
  <defs>
    <filter id="blur-bg" x="-20%" y="-20%" width="140%" height="140%">
      <feGaussianBlur stdDeviation="8" />
    </filter>
    <filter id="shadow-insert" x="-20%" y="-20%" width="140%" height="140%">
      <feDropShadow dx="0" dy="4" stdDeviation="5" flood-color="#000000" flood-opacity="0.12" />
    </filter>
    <filter id="shadow-front" x="-10%" y="-10%" width="120%" height="130%">
      <feDropShadow dx="0" dy="-2" stdDeviation="4" flood-color="#5c3a00" flood-opacity="0.08" />
      <feDropShadow dx="0" dy="5" stdDeviation="6" flood-color="#3e2723" flood-opacity="0.22" />
    </filter>
    <radialGradient id="dropShadowGrad" cx="50%" cy="50%" r="50%">
      <stop offset="0%" stop-color="#000000" stop-opacity="0.3" />
      <stop offset="80%" stop-color="#000000" stop-opacity="0.05" />
      <stop offset="100%" stop-color="#000000" stop-opacity="0" />
    </radialGradient>
    <linearGradient id="backGradient" x1="0" y1="0" x2="0" y2="1">
      <stop offset="0%" stop-color="#ffe082" />
      <stop offset="100%" stop-color="#e65100" />
    </linearGradient>
    <linearGradient id="frontGradient" x1="0" y1="0" x2="0" y2="1">
      <stop offset="0%" stop-color="#ffe082" />
      <stop offset="40%" stop-color="#ffa000" />
      <stop offset="100%" stop-color="#ff6f00" />
    </linearGradient>
    <linearGradient id="frontBorder" x1="0" y1="0" x2="0" y2="1">
      <stop offset="0%" stop-color="#ffffff" stop-opacity="0.7" />
      <stop offset="30%" stop-color="#ffffff" stop-opacity="0.2" />
      <stop offset="100%" stop-color="#ffab00" stop-opacity="0.1" />
    </linearGradient>
    <linearGradient id="cardGrad" x1="0" y1="0" x2="1" y2="1">
      <stop offset="0%" stop-color="#ffffff" />
      <stop offset="100%" stop-color="#eceff1" />
    </linearGradient>
    <linearGradient id="imgGrad" x1="0" y1="0" x2="1" y2="1">
      <stop offset="0%" stop-color="#00acc1" />
      <stop offset="100%" stop-color="#3f51b5" />
    </linearGradient>
    <clipPath id="imageClip">
      <rect x="110" y="87" width="86" height="56" rx="4" />
    </clipPath>
  </defs>

  <ellipse cx="128" cy="222" rx="106" ry="12" fill="url(#dropShadowGrad)" filter="url(#blur-bg)" />

  <path d="M 24 82 
           A 12 12 0 0 1 36 70 
           L 90 70 
           A 12 12 0 0 1 102 78 
           L 112 88 
           A 12 12 0 0 0 120 92 
           L 220 92 
           A 12 12 0 0 1 232 104 
           L 232 208 
           A 12 12 0 0 1 220 220 
           L 36 220 
           A 12 12 0 0 1 24 208 
           Z" 
        fill="url(#backGradient)" />

  <g transform="rotate(-2 128 130)" filter="url(#shadow-insert)">
    <rect x="48" y="75" width="160" height="110" rx="8" fill="url(#cardGrad)" />
    <rect x="60" y="92" width="38" height="8" rx="2" fill="#90caf9" />
    <rect x="60" y="108" width="38" height="4" rx="1.5" fill="#cfd8dc" />
    <rect x="60" y="118" width="38" height="4" rx="1.5" fill="#cfd8dc" />
    <rect x="60" y="128" width="24" height="4" rx="1.5" fill="#cfd8dc" />
    <g clip-path="url(#imageClip)">
      <rect x="110" y="87" width="86" height="56" fill="url(#imgGrad)" />
      <circle cx="172" cy="103" r="8" fill="#fff59d" />
      <path d="M 100 143 L 136 110 L 172 143 Z" fill="#ffffff" opacity="0.85" />
      <path d="M 144 143 L 174 116 L 204 143 Z" fill="#ffffff" opacity="0.6" />
    </g>
  </g>

  <path d="M 24 124 
           A 12 12 0 0 1 36 112 
           L 220 112 
           A 12 12 0 0 1 232 124 
           L 232 208 
           A 12 12 0 0 1 220 220 
           L 36 220 
           A 12 12 0 0 1 24 208 
           Z" 
        fill="url(#frontGradient)" 
        stroke="url(#frontBorder)" 
        stroke-width="1.5"
        filter="url(#shadow-front)" />
</svg>
