<svg xmlns="http://www.w3.org/2000/svg" viewBox="0 0 256 256" width="100%" height="100%">
  <defs>
    <linearGradient id="tgChats" x1="58" y1="44" x2="198" y2="212" gradientUnits="userSpaceOnUse">
      <stop offset="0" stop-color="#39b3e6"/>
      <stop offset="1" stop-color="#1688c8"/>
    </linearGradient>
    <filter id="shadow" x="-18%" y="-18%" width="136%" height="136%">
      <feDropShadow dx="0" dy="8" stdDeviation="10" flood-color="#000000" flood-opacity=".20"/>
    </filter>
  </defs>
  <path d="M48 80c0-20 16-36 36-36h56c20 0 36 16 36 36v30c0 20-16 36-36 36H99l-39 31v-36c-8-7-12-18-12-31V80Z" fill="url(#tgChats)" filter="url(#shadow)"/>
  <path d="M95 114h99c9 0 17 8 17 17v34c0 14-11 25-25 25h-48l-36 28v-28h-7c-14 0-25-11-25-25v-26c0-14 11-25 25-25Z" fill="#ffffff" opacity=".95"/>
  <circle cx="108" cy="152" r="8" fill="#1688c8"/>
  <circle cx="140" cy="152" r="8" fill="#1688c8"/>
  <circle cx="172" cy="152" r="8" fill="#1688c8"/>
</svg>
