<svg xmlns="http://www.w3.org/2000/svg" viewBox="0 0 256 256" width="100%" height="100%">
  <defs>
    <linearGradient id="tgDownloads" x1="60" y1="38" x2="190" y2="218" gradientUnits="userSpaceOnUse">
      <stop offset="0" stop-color="#39b3e6"/>
      <stop offset="1" stop-color="#1688c8"/>
    </linearGradient>
    <filter id="shadow" x="-18%" y="-18%" width="136%" height="136%">
      <feDropShadow dx="0" dy="8" stdDeviation="10" flood-color="#000000" flood-opacity=".20"/>
    </filter>
  </defs>
  <rect x="42" y="42" width="172" height="172" rx="44" fill="url(#tgDownloads)" filter="url(#shadow)"/>
  <path d="M128 62c8 0 14 6 14 14v62l25-25c5-5 14-5 19 0s5 13 0 18l-48 48c-6 6-15 6-20 0l-48-48c-5-5-5-13 0-18s14-5 19 0l25 25V76c0-8 6-14 14-14Z" fill="#ffffff"/>
  <rect x="73" y="184" width="110" height="18" rx="9" fill="#ffffff" opacity=".92"/>
</svg>
