<svg xmlns="http://www.w3.org/2000/svg" viewBox="0 0 64 64">
  <defs><linearGradient id="e" x1="0" y1="0" x2="0" y2="1"><stop stop-color="#34415a"/><stop offset="1" stop-color="#050914"/></linearGradient><linearGradient id="r" x1="0" y1="0" x2="0" y2="1"><stop stop-color="#fff" stop-opacity=".92"/><stop offset="1" stop-color="#090e19" stop-opacity=".62"/></linearGradient><radialGradient id="i" cx=".38" cy=".32"><stop stop-color="#fff" stop-opacity=".85"/><stop offset=".3" stop-color="#64748b"/><stop offset="1" stop-color="#020617"/></radialGradient></defs>
  <path d="M4 34S14 15 32 15s28 19 28 19-10 19-28 19S4 34 4 34Z" fill="url(#e)" opacity=".72" transform="translate(0 2)"/>
  <path d="M4 32S14 13 32 13s28 19 28 19-10 19-28 19S4 32 4 32Z" fill="#718096" stroke="url(#r)" stroke-width="2"/>
  <path d="M8 31s10-14 24-14 24 14 24 14" fill="none" stroke="url(#r)" stroke-width="2.5" stroke-linecap="round"/>
  <circle cx="32" cy="32" r="12" fill="url(#i)" stroke="url(#r)" stroke-width="2"/><circle cx="29" cy="28" r="3" fill="url(#r)"/>
</svg>
